<svg aria-hidden="true" style="position: absolute; width: 0; height: 0; overflow: hidden;" version="1.1" xmlns="http://www.w3.org/2000/svg" xmlns:xlink="http://www.w3.org/1999/xlink">
<defs>
<symbol id="icon-Burger" viewBox="0 0 46 32">
<path fill="none" stroke="#d41443" style="stroke: var(--color1, #d41443)" stroke-linejoin="miter" stroke-linecap="butt" stroke-miterlimit="4" stroke-width="2.2857" d="M0 2.286h45.714M0 16h45.714M0 29.714h45.714"></path>
</symbol>
<symbol id="icon-facebook" viewBox="0 0 33 32">
<path fill="#fea5bb" style="fill: var(--color2, #fea5bb)" d="M16.47 32c8.837 0 16-7.163 16-16s-7.163-16-16-16c-8.836 0-16 7.163-16 16s7.164 16 16 16z"></path>
<path fill="#fff" style="fill: var(--color3, #fff)" d="M20.916 15.981h-2.61v9.619h-3.955v-9.62h-1.88v-3.38h1.88v-2.187c0-1.565 0.74-4.014 3.99-4.014l2.93 0.012v3.281h-2.126c-0.348 0-0.839 0.176-0.839 0.922v1.99h2.956l-0.346 3.376z"></path>
</symbol>
<symbol id="icon-github" viewBox="0 0 32 32">
<path fill="#fea5bb" style="fill: var(--color2, #fea5bb)" d="M28.8 12.8c0 7.069-5.731 12.8-12.8 12.8s-12.8-5.731-12.8-12.8c0-7.069 5.731-12.8 12.8-12.8s12.8 5.731 12.8 12.8z"></path>
<path fill="#fff" style="fill: var(--color3, #fff)" d="M16 5.27c-4.136 0-7.53 3.394-7.53 7.53 0 3.53 2.477 6.735 5.765 7.53v-2.491c-0.326 0.072-0.626 0.074-0.958-0.024-0.445-0.132-0.806-0.428-1.074-0.88-0.171-0.288-0.474-0.602-0.79-0.578l-0.078-0.879c0.684-0.058 1.275 0.417 1.626 1.007 0.156 0.262 0.336 0.416 0.566 0.484 0.222 0.066 0.462 0.034 0.741-0.064 0.070-0.558 0.326-0.768 0.518-1.062-1.961-0.293-2.742-1.333-3.053-2.154-0.411-1.090-0.19-2.453 0.536-3.314 0.014-0.016 0.040-0.061 0.030-0.091-0.334-1.007 0.072-1.84 0.088-1.928 0.384 0.114 0.446-0.114 1.67 0.629l0.211 0.127c0.088 0.053 0.061 0.022 0.15 0.016 0.472-0.133 1.015-0.214 1.575-0.222l0.005-0c0.573 0.009 1.124 0.092 1.647 0.239l-0.045-0.011 0.069 0.007c-0.006-0.002 0.018-0.005 0.060-0.030 1.528-0.926 1.474-0.623 1.883-0.756 0.015 0.088 0.416 0.934 0.086 1.928-0.045 0.138 1.325 1.392 0.566 3.406-0.31 0.822-1.092 1.862-3.053 2.154 0.251 0.384 0.554 0.587 0.552 1.378v3.11c3.288-0.794 5.765-4 5.765-7.53 0-4.136-3.394-7.53-7.53-7.53z"></path>
</symbol>
<symbol id="icon-telegram" viewBox="0 0 33 32">
<path fill="#fea5bb" style="fill: var(--color2, #fea5bb)" d="M32.235 16c0 8.837-7.163 16-16 16s-16-7.163-16-16c0-8.837 7.163-16 16-16s16 7.163 16 16z"></path>
<path fill="#fff" style="fill: var(--color3, #fff)" d="M13.102 18.375l-0.317 4.17c0.454 0 0.651-0.183 0.887-0.401l2.13-1.9 4.415 3.017c0.81 0.42 1.38 0.199 1.599-0.695l2.897-12.673h0.001c0.257-1.118-0.433-1.554-1.222-1.28l-17.032 6.086c-1.162 0.42-1.145 1.026-0.198 1.3l4.355 1.264 10.114-5.907c0.476-0.294 0.91-0.131 0.553 0.163l-8.181 6.856z"></path>
</symbol>
<symbol id="arrow-long" viewBox="0 0 448 512">
<path fill="currentColor" d="M190.5 66.9l22.2-22.2c9.4-9.4 24.6-9.4 33.9 0L441 239c9.4 9.4 9.4 24.6 0 33.9L246.6 467.3c-9.4 9.4-24.6 9.4-33.9 0l-22.2-22.2c-9.5-9.5-9.3-25 .4-34.3L311.4 296H24c-13.3 0-24-10.7-24-24v-32c0-13.3 10.7-24 24-24h287.4L190.9 101.2c-9.8-9.3-10-24.8-.4-34.3z" class=""></path>
</symbol>
<symbol id="icon-close" viewBox="0 0 32 32">
<path fill="none" stroke="#fff" style="stroke: var(--color1, #fff)" stroke-linejoin="miter" stroke-linecap="butt" stroke-miterlimit="4" stroke-width="2" d="M2.519 2l26.963 28"></path>
<path fill="none" stroke="#fff" style="stroke: var(--color1, #fff)" stroke-linejoin="miter" stroke-linecap="butt" stroke-miterlimit="4" stroke-width="2" d="M2 29.481l28-26.963"></path>
</symbol>
</defs>
</svg>
